Coordinates
version=1
nRows=10
nColumns=40
inDegrees=yes

Units are S.I. units (second, meters, Newtons, ...)
If the header above contains a line with 'inDegrees', this indicates whether rotational values are in degrees (yes) or radians (no).

endheader
time	pelvis_tilt	pelvis_list	pelvis_rotation	pelvis_tx	pelvis_ty	pelvis_tz	hip_flexion_r	hip_adduction_r	hip_rotation_r	knee_angle_r	knee_angle_r_beta	ankle_angle_r	subtalar_angle_r	mtp_angle_r	hip_flexion_l	hip_adduction_l	hip_rotation_l	knee_angle_l	knee_angle_l_beta	ankle_angle_l	subtalar_angle_l	mtp_angle_l	lumbar_extension	lumbar_bending	lumbar_rotation	arm_flex_r	arm_add_r	arm_rot_r	elbow_flex_r	pro_sup_r	wrist_flex_r	wrist_dev_r	arm_flex_l	arm_add_l	arm_rot_l	elbow_flex_l	pro_sup_l	wrist_flex_l	wrist_dev_l
      0.81000000	     -0.18136086	      7.96607033	    -86.44708522	      0.25029962	      0.91433458	     -0.04500239	     36.28461705	      0.10851326	     -6.18051058	      6.23922066	      0.10889494	     -1.00416158	      0.00000000	      0.00000000	    -13.11577441	      2.25462327	      6.69288885	      9.78956043	      0.17086006	      9.06763800	      0.00000000	      0.00000000	      2.73842572	     -0.43584726	     -4.85664978	      0.00000000	      0.00000000	      0.00000000	      0.00000000	      0.00000000	      0.00000000	      0.00000000	      0.00000000	      0.00000000	      0.00000000	      0.00000000	      0.00000000	      0.00000000	      0.00000000
      0.82000000	     -0.66160637	      8.14583199	    -86.37671677	      0.24950926	      0.91294961	     -0.02798537	     36.86632725	      0.46625979	     -7.38908197	      8.24465951	      0.14389645	     -2.78757029	      0.00000000	      0.00000000	    -13.02573893	      1.62636018	      6.10471504	     11.43303513	      0.19954411	      8.03167049	      0.00000000	      0.00000000	      3.09563426	      0.20533647	     -4.87352441	      0.00000000	      0.00000000	      0.00000000	      0.00000000	      0.00000000	      0.00000000	      0.00000000	      0.00000000	      0.00000000	      0.00000000	      0.00000000	      0.00000000	      0.00000000	      0.00000000
      0.83000000	     -1.18755028	      8.37081969	    -86.29670410	      0.24866220	      0.91196896	     -0.01087617	     37.45231857	      0.82106507	     -8.51927543	     10.34829356	      0.18061179	     -4.65769373	      0.00000000	      0.00000000	    -12.65700954	      0.93061523	      5.46634472	     13.40585604	      0.23397633	      6.62772208	      0.00000000	      0.00000000	      3.52888708	      0.87558249	     -4.88519218	      0.00000000	      0.00000000	      0.00000000	      0.00000000	      0.00000000	      0.00000000	      0.00000000	      0.00000000	      0.00000000	      0.00000000	      0.00000000	      0.00000000	      0.00000000	      0.00000000
      0.84000000	     -1.69234776	      8.48575057	    -86.30088557	      0.24771452	      0.91157882	      0.00638052	     37.85213818	      1.18867210	     -9.41086290	     12.46711608	      0.21759222	     -6.41222878	      0.00000000	     -0.00000000	    -12.23456959	      0.24262832	      4.71364100	     15.58760241	      0.27205498	      4.79500815	      0.00000000	      0.00000000	      3.83648890	      1.53557906	     -4.82141391	     -0.00000000	     -0.00000000	     -0.00000000	      0.00000000	      0.00000000	      0.00000000	      0.00000000	     -0.00000000	      0.00000000	      0.00000000	      0.00000000	      0.00000000	     -0.00000000	     -0.00000000
      0.85000000	     -2.23735366	      8.63891311	    -86.31885746	      0.24667342	      0.91163329	      0.02369531	     38.19056792	      1.60647104	    -10.06511361	     14.50960360	      0.25324036	     -7.93306498	      0.00000000	      0.00000000	    -11.53642670	     -0.51667758	      3.93823602	     18.06172287	      0.31523653	      2.48360121	      0.00000000	     -0.00000000	      4.21259056	      2.24736275	     -4.74367921	     -0.00000000	      0.00000000	     -0.00000000	      0.00000000	      0.00000000	      0.00000000	     -0.00000000	     -0.00000000	     -0.00000000	     -0.00000000	      0.00000000	      0.00000000	      0.00000000	      0.00000000
      0.86000000	     -2.73136246	      8.68737957	    -86.37798816	      0.24554803	      0.91230118	      0.04100757	     38.29769404	      2.02765660	    -10.45600752	     16.43017431	      0.28676064	     -8.99504052	      0.00000000	      0.00000000	    -10.70607272	     -1.25903901	      3.13295485	     20.83906977	      0.36371038	     -0.27065522	      0.00000000	      0.00000000	      4.44713889	      2.89986509	     -4.61324658	      0.00000000	      0.00000000	      0.00000000	      0.00000000	      0.00000000	      0.00000000	      0.00000000	      0.00000000	      0.00000000	      0.00000000	      0.00000000	      0.00000000	      0.00000000	      0.00000000
      0.87000000	     -3.25537972	      8.72885411	    -86.46252213	      0.24426768	      0.91343205	      0.05830704	     38.27927649	      2.54110648	    -10.62974935	     18.19986417	      0.31764755	     -9.61006937	      0.00000000	      0.00000000	     -9.65703416	     -2.07485851	      2.33475926	     23.86168020	      0.41646488	     -3.50033114	      0.00000000	      0.00000000	      4.68901402	      3.57495594	     -4.44374711	      0.00000000	      0.00000000	      0.00000000	      0.00000000	      0.00000000	      0.00000000	      0.00000000	      0.00000000	      0.00000000	      0.00000000	      0.00000000	      0.00000000	      0.00000000	      0.00000000
      0.88000000	     -3.73999158	      8.71307343	    -86.55717997	      0.24295562	      0.91505524	      0.07549832	     38.04067218	      3.07369149	    -10.62926155	     19.74293075	      0.34457915	     -9.75451157	      0.00000000	      0.00000000	     -8.42205123	     -2.88500485	      1.59947269	     27.15851506	      0.47400551	     -7.07573781	      0.00000000	      0.00000000	      4.84471423	      4.18645948	     -4.22856921	      0.00000000	      0.00000000	      0.00000000	      0.00000000	      0.00000000	      0.00000000	      0.00000000	      0.00000000	      0.00000000	      0.00000000	      0.00000000	      0.00000000	      0.00000000	      0.00000000
      0.89000000	     -4.21325332	      8.68224631	    -86.64970104	      0.24154179	      0.91707155	      0.09253781	     37.64802343	      3.65222558	    -10.50586343	     21.06128105	      0.36758870	     -9.51128229	      0.00000000	      0.00000000	     -6.99547455	     -3.72686511	      0.95313181	     30.64663886	      0.53488475	    -10.91229362	      0.00000000	      0.00000000	      4.96724955	      4.77693778	     -3.98226841	      0.00000000	      0.00000000	      0.00000000	      0.00000000	      0.00000000	      0.00000000	      0.00000000	      0.00000000	      0.00000000	      0.00000000	      0.00000000	      0.00000000	      0.00000000	      0.00000000
      0.90000000	     -4.63915233	      8.65363153	    -86.74181374	      0.24005373	      0.91940844	      0.10936713	     37.09666285	      4.24245527	    -10.28805798	     22.10681034	      0.38583663	     -8.97281378	      0.00000000	      0.00000000	     -5.36434970	     -4.53354631	      0.45159360	     34.29799933	      0.59861302	    -14.77110528	      0.00000000	      0.00000000	      5.07739084	      5.28595029	     -3.72574232	      0.00000000	      0.00000000	      0.00000000	      0.00000000	      0.00000000	      0.00000000	      0.00000000	      0.00000000	      0.00000000	      0.00000000	      0.00000000	      0.00000000	      0.00000000	      0.00000000
